<svg width="104" height="75" viewBox="0 0 104 75" fill="none" xmlns="http://www.w3.org/2000/svg">
<mask id="mask0_115_3" style="mask-type:alpha" maskUnits="userSpaceOnUse" x="3" y="6" width="99" height="68">
<path d="M16.9798 21.643C16.3137 20.5258 15.3742 19.7455 14.1614 19.3022C12.8931 18.8872 11.6301 18.738 10.3723 18.8549C9.0311 19.0001 8.03139 19.4239 7.3732 20.1263C6.68867 20.9129 6.35579 21.7821 6.37456 22.7339C6.36644 23.7418 6.93011 24.6355 8.06556 25.415C8.63273 25.7768 9.19908 26.0966 9.7646 26.3743C10.3296 26.6241 10.8931 26.8039 11.4554 26.9138C12.5512 27.1055 13.7786 27.5767 15.1375 28.3274C16.4695 29.1341 17.3428 30.1106 17.7574 31.2569C18.2012 32.4591 18.0987 33.6493 17.4499 34.8277C16.7736 36.0341 15.6968 36.8082 14.2194 37.1499C12.7426 37.5195 11.2177 37.5814 9.64478 37.3355C8.12893 37.1454 6.85872 36.6324 5.83416 35.7964C4.80905 34.9325 4.14187 33.7592 3.8326 32.2766C3.62004 31.4375 3.83492 30.9747 4.47726 30.8882C5.0916 30.8019 5.48884 31.0663 5.66899 31.6815C5.80197 32.7449 6.23964 33.6391 6.98199 34.3641C7.63924 35.0335 8.65607 35.4776 10.0325 35.6962C11.3523 35.8871 12.5967 35.7983 13.7655 35.4298C14.9057 35.0335 15.59 34.2329 15.8183 33.0282C16.0471 31.8514 15.636 30.8871 14.5851 30.1353C14.0465 29.8014 13.4244 29.4958 12.7189 29.2186C12.0408 28.9133 11.2516 28.6503 10.3512 28.4298C9.47877 28.2092 8.68953 27.9463 7.98346 27.6411C7.30484 27.3077 6.69484 26.9041 6.15345 26.4303C5.04379 25.5387 4.47433 24.351 4.44506 22.8673C4.3889 21.4397 4.8955 20.1499 5.96485 18.9979C7.00786 17.93 8.3537 17.3089 10.0024 17.1345C10.8127 17.0474 11.5684 17.0305 12.2695 17.0838C12.9706 17.1371 13.6308 17.2465 14.2501 17.4121C15.4333 17.7715 16.5957 18.4949 17.7372 19.5824C18.4806 20.3634 18.7865 20.9642 18.6548 21.3846C18.4962 21.8612 17.9378 21.9473 16.9798 21.643ZM26.2669 24.0009C25.7842 27.9223 25.901 31.7154 26.6174 35.3802C26.6076 36.3041 26.351 36.7811 25.8475 36.811C25.3447 36.8689 24.974 36.5344 24.7357 35.8074C24.3262 32.0854 24.034 27.9151 23.8589 23.2963C23.6832 18.6495 23.6387 13.5543 23.7254 8.01061C23.6802 7.14289 23.9942 6.73573 24.6673 6.78912C25.285 6.87073 25.5881 7.3315 25.5767 8.17145C25.6461 10.2709 25.6996 12.2725 25.7371 14.1761C25.8027 16.0796 25.8383 17.8853 25.844 19.5931C27.0176 18.0487 28.5267 17.189 30.3714 17.0139C32.215 16.7828 33.7893 17.0987 35.0944 17.9615C35.7192 18.4071 36.2609 18.8949 36.7194 19.4251C37.1773 19.9273 37.5386 20.4998 37.8033 21.1427C38.4173 22.4562 38.7943 23.8266 38.9345 25.2538C39.1027 26.681 39.1748 28.2066 39.1508 29.8305C39.1382 30.6144 39.1139 31.5104 39.0778 32.5184C39.0697 33.5263 39.0215 34.6324 38.9332 35.8366C38.7807 36.6211 38.4524 37.0143 37.9484 37.0163C37.4444 37.0182 37.1422 36.5994 37.0416 35.7599C37.1013 34.5278 37.1495 33.4218 37.1862 32.4417C37.2223 31.4337 37.2469 30.5517 37.26 29.7958C37.2731 29.0398 37.2587 28.312 37.2169 27.6122C37.2025 26.8843 37.1613 26.2126 37.0931 25.5969C37.0244 24.9533 36.9146 24.3517 36.7635 23.7924C36.6119 23.2051 36.4192 22.6599 36.1852 22.1568C35.9507 21.6258 35.6756 21.1649 35.3599 20.7742C35.0716 20.3553 34.7287 20.0067 34.3312 19.7283C33.9611 19.4217 33.537 19.2134 33.0588 19.1033C32.608 18.965 32.1447 18.8968 31.6687 18.8987C31.1652 18.9286 30.7043 18.9864 30.286 19.072C29.8671 19.1296 29.477 19.2291 29.1158 19.3705C28.4213 19.6531 27.8422 20.1033 27.3783 20.721C26.9425 21.3386 26.572 22.4319 26.2669 24.0009ZM52.2565 17.0974C53.8794 17.0351 55.3454 17.5334 56.6543 18.5922C58.0187 19.6228 59.0146 21.1308 59.6418 23.1161C60.2964 25.0734 60.3944 27.2007 59.9357 29.4982C59.478 31.8517 58.4233 33.7456 56.7715 35.1798C55.0922 36.6421 53.1581 37.2515 50.9692 37.008C48.6962 36.7648 46.9025 35.9738 45.588 34.635C44.3031 33.3802 43.4432 31.6617 43.0081 29.4796C42.5753 27.4095 42.7013 25.2813 43.3862 23.0949C44.0157 20.9367 45.1185 19.3507 46.6946 18.3367C48.2422 17.2948 50.0961 16.8817 52.2565 17.0974ZM52.8348 18.7329C50.6481 18.6014 48.9333 18.972 47.6904 19.8447C46.3635 20.7177 45.4655 22.037 44.9963 23.8026C44.4436 25.5965 44.3242 27.3468 44.6378 29.0534C44.7949 29.9207 45.0344 30.7036 45.3562 31.4023C45.678 32.101 46.1104 32.7292 46.6535 33.2871C47.655 34.3751 49.0814 34.9995 50.9327 35.1603C52.728 35.3214 54.3558 34.7972 55.816 33.5877C57.1928 32.4065 58.0445 30.8634 58.3709 28.9584C58.6974 27.0533 58.578 25.262 58.0129 23.5844C57.4478 21.9068 56.6968 20.7478 55.7602 20.1075C55.3341 19.8012 54.8806 19.5229 54.3996 19.2728C53.9186 19.0227 53.397 18.8428 52.8348 18.7329ZM72.4164 17.0195C74.0393 16.9573 75.5052 17.4555 76.8142 18.5144C78.1786 19.545 79.1744 21.053 79.8016 23.0383C80.4563 24.9955 80.5542 27.1229 80.0955 29.4204C79.6379 31.7739 78.5832 33.6677 76.9314 35.102C75.2521 36.5643 73.318 37.1737 71.129 36.9301C68.8561 36.6869 67.0623 35.896 65.7478 34.5572C64.463 33.3023 63.603 31.5838 63.168 29.4018C62.7351 27.3317 62.8612 25.2035 63.5461 23.0171C64.1756 20.8589 65.2783 19.2728 66.8545 18.2589C68.402 17.217 70.256 16.8039 72.4164 17.0195ZM72.9947 18.6551C70.8079 18.5236 69.0931 18.8941 67.8503 19.7668C66.5234 20.6399 65.6254 21.9592 65.1561 23.7248C64.6035 25.5187 64.484 27.2689 64.7977 28.9755C64.9548 29.8428 65.1943 30.6258 65.5161 31.3245C65.8379 32.0232 66.2703 32.6514 66.8133 33.2092C67.8149 34.2973 69.2413 34.9217 71.0926 35.0825C72.8879 35.2436 74.5156 34.7193 75.9759 33.5098C77.3527 32.3287 78.2043 30.7855 78.5308 28.8805C78.8572 26.9755 78.7379 25.1842 78.1727 23.5065C77.6076 21.8289 76.8567 20.6699 75.92 20.0296C75.4939 19.7233 75.0404 19.4451 74.5594 19.195C74.0785 18.9449 73.5569 18.7649 72.9947 18.6551ZM91.5668 19.0033L99.6308 18.9722C100.363 19.1654 100.706 19.542 100.661 20.1021C100.616 20.6622 100.245 20.9996 99.547 21.1143L91.5251 21.1453C91.4962 28.2005 91.7558 32.1331 92.3038 32.9428C92.854 33.8646 93.5791 34.4217 94.4789 34.6143C95.3799 34.8627 96.5592 35.0262 98.0168 35.1045C98.7734 35.1296 99.1297 35.4502 99.0859 36.0663C99.0135 36.6545 98.6138 36.978 97.887 37.0368C96.039 37.0439 94.5788 36.8396 93.5066 36.4238C92.4628 36.0359 91.5363 35.1995 90.7269 33.9148C89.89 32.6582 89.5124 28.4182 89.5939 21.1947L84.0516 21.3001C83.2665 21.2471 82.8682 20.9267 82.8566 20.3388C82.8439 19.6949 83.2281 19.3015 84.0094 19.1585L89.6357 19.0528L89.4139 9.94073C89.4512 8.9887 89.7501 8.5256 90.3106 8.55143C90.8711 8.57726 91.2146 8.95389 91.341 9.68132L91.5668 19.0033ZM39.4563 51.7067C38.5458 49.5545 37.6622 48.0601 36.8057 47.2235C35.9206 46.359 34.8744 45.8451 33.667 45.6818C32.4043 45.5467 31.2022 45.6493 30.0609 45.9897C28.8635 46.3302 27.8141 47.0762 26.9128 48.2275C25.9829 49.351 25.2833 50.7955 24.8141 52.5611C24.3158 54.2709 24.0879 56.2035 24.1304 58.3591C24.1234 59.423 24.1724 60.4867 24.2774 61.5501C24.4098 62.5855 24.5985 63.6347 24.8435 64.6976C25.3609 66.7953 26.1344 68.3882 27.1639 69.4761C28.138 70.5922 29.4672 71.259 31.1516 71.4764C31.9653 71.5573 32.7353 71.5543 33.4616 71.4675C34.1874 71.3527 34.8553 71.1402 35.4652 70.8298C36.7405 70.181 37.7684 69.0572 38.5489 67.4583C39.4123 65.8032 39.7865 63.478 39.6714 60.4828L31.1866 60.4736C30.5953 60.3079 30.2939 59.9311 30.2823 59.3432C30.2701 58.7273 30.5866 58.4461 31.2317 58.4997C34.2842 58.5159 36.6088 58.5349 38.2053 58.5567C39.8018 58.5785 40.6704 58.6032 40.8109 58.6306C41.0926 58.7135 41.2436 59.2729 41.2641 60.3087C41.285 61.3725 41.227 62.6886 41.0899 64.2569C40.9243 65.7974 40.424 67.4091 39.5892 69.0921C38.7527 70.6912 37.5721 71.8856 36.0476 72.6754C34.494 73.4093 32.8187 73.6537 31.0217 73.4087C29.2248 73.1637 27.6553 72.3858 26.3134 71.0752C25.0565 69.8202 24.1098 67.962 23.4732 65.5008C22.8103 63.1236 22.4968 60.7171 22.5328 58.2813C22.5413 55.8735 22.8334 53.6467 23.4091 51.6007C23.9573 49.5828 24.7925 47.9138 25.9145 46.5936C26.4898 45.9474 27.0813 45.4132 27.689 44.9909C28.3242 44.5405 28.9898 44.216 29.6859 44.0173C30.3826 43.8467 31.0804 43.732 31.7793 43.6733C32.4782 43.6146 33.1785 43.6259 33.8801 43.7072C35.2 43.8981 36.4584 44.5231 37.6554 45.5824C38.7403 46.6421 39.7535 48.3179 40.6947 50.61C40.9633 51.4489 40.9743 52.0088 40.7279 52.2897C40.4808 52.5426 40.057 52.3483 39.4563 51.7067ZM46.2117 44.9614C46.2115 47.7891 46.2359 50.4487 46.2851 52.9402C46.3342 55.4317 46.4215 57.7271 46.5469 59.8264C46.7423 64.0531 47.3334 67.0465 48.3202 68.8064C49.3349 70.5663 50.8212 71.3865 52.779 71.2669C54.7653 71.1753 56.1902 70.3019 57.0536 68.6467C57.8901 67.0477 58.4054 64.778 58.5994 61.8376C58.7391 58.9814 58.8132 56.3494 58.8217 53.9417C58.8259 52.7378 58.8003 51.436 58.7447 50.0364C58.7165 48.6087 58.6579 47.0551 58.5687 45.3756C58.6614 44.3954 59.016 43.9181 59.6326 43.9437C60.2497 43.9973 60.539 44.4721 60.5007 45.3682C60.5904 47.0756 60.6496 48.6572 60.6783 50.1129C60.7345 51.5406 60.7604 52.8563 60.7562 54.0602C60.7756 56.4678 60.6642 59.3379 60.422 62.6704C60.2071 65.9749 59.5019 68.5533 58.3064 70.4057C57.0274 72.2864 55.2407 73.2732 52.9464 73.366C50.5692 73.5152 48.6904 72.6686 47.3099 70.8261C46.6197 69.9049 46.0483 68.6192 45.5957 66.9692C45.1706 65.291 44.8786 63.2624 44.7196 60.8833C44.3721 56.0412 44.2246 50.6944 44.2772 44.8429C44.3727 44.0026 44.7004 43.5814 45.2604 43.5792C45.7924 43.5772 46.1095 44.0379 46.2117 44.9614ZM80.8136 44.5338C80.4787 48.8466 80.2313 53.3411 80.0715 58.0171C79.9392 62.6651 79.8944 67.4947 79.9373 72.5059C79.4185 73.1798 78.9011 73.2098 78.385 72.5959C77.8414 72.0101 73.5589 63.5856 65.5376 47.3225C65.7367 50.3174 65.9051 53.8863 66.0428 58.0293C66.18 62.1443 66.2865 66.8333 66.3623 72.0964C66.3805 73.0202 66.0816 73.4833 65.4656 73.4857C64.8782 73.5159 64.5764 73.1252 64.5604 72.3133C64.4758 66.6023 64.369 61.8993 64.2401 58.2042C64.1112 54.5092 63.9748 51.85 63.8308 50.2267C63.5142 46.9524 63.5181 45.0206 63.8425 44.4314C64.112 43.8984 64.5578 43.7847 65.1798 44.0903C65.4917 44.285 65.7618 44.494 65.9902 44.7171C66.2187 44.9402 66.4193 45.1774 66.5923 45.4287C66.7658 45.708 67.7996 47.7197 69.6936 51.464C71.615 55.1801 74.3967 60.6287 78.0385 67.8098C77.9986 64.3664 78.0523 60.6986 78.1995 56.8065C78.3462 52.8864 78.559 48.77 78.838 44.4575C78.9329 43.5892 79.2749 43.1819 79.864 43.2357C80.3976 43.3176 80.7142 43.7503 80.8136 44.5338Z" fill="white"/>
</mask>
<g mask="url(#mask0_115_3)">
<rect x="-4.78302" y="11" width="114" height="68" fill="white"/>
<g filter="url(#filter0_f_115_3)">
<path d="M-4.78305 11H109.217V79H-4.78305V11Z" fill="url(#paint0_linear_115_3)"/>
</g>
</g>
<defs>
<filter id="filter0_f_115_3" x="-8.78305" y="7" width="122" height="76" filterUnits="userSpaceOnUse" color-interpolation-filters="sRGB">
<feFlood flood-opacity="0" result="BackgroundImageFix"/>
<feBlend mode="normal" in="SourceGraphic" in2="BackgroundImageFix" result="shape"/>
<feGaussianBlur stdDeviation="2" result="effect1_foregroundBlur_115_3"/>
</filter>
<linearGradient id="paint0_linear_115_3" x1="-4.78305" y1="11.1527" x2="57.0576" y2="67.7069" gradientUnits="userSpaceOnUse">
<stop offset="0.109375" stop-color="#544CE6"/>
<stop offset="0.713542" stop-color="#BE2847"/>
<stop offset="1" stop-color="#64A9B7"/>
</linearGradient>
</defs>
</svg>
